<mxfile host="app.diagrams.net" modified="2023-09-04T09:11:27.519Z" agent="Mozilla/5.0 (Windows NT 10.0; Win64; x64) AppleWebKit/537.36 (KHTML, like Gecko) Chrome/116.0.0.0 Safari/537.36" etag="8rbtp621ASmhxh0ckj5-" version="21.7.2" type="github">
  <diagram name="第 1 页" id="3Odgr0gWdHy6_mn5YPh8">
    <mxGraphModel dx="2501" dy="758" grid="1" gridSize="10" guides="1" tooltips="1" connect="1" arrows="1" fold="1" page="1" pageScale="1" pageWidth="827" pageHeight="1169" math="0" shadow="0">
      <root>
        <mxCell id="0" />
        <mxCell id="1" parent="0" />
        <mxCell id="d0x66zHz1gyIVwaYEohO-27" style="edgeStyle=orthogonalEdgeStyle;rounded=0;orthogonalLoop=1;jettySize=auto;html=1;entryX=0.5;entryY=0;entryDx=0;entryDy=0;" edge="1" parent="1" source="d0x66zHz1gyIVwaYEohO-1" target="d0x66zHz1gyIVwaYEohO-3">
          <mxGeometry relative="1" as="geometry" />
        </mxCell>
        <mxCell id="d0x66zHz1gyIVwaYEohO-1" value="手动新增" style="rounded=0;whiteSpace=wrap;html=1;" vertex="1" parent="1">
          <mxGeometry x="65" y="260" width="120" height="60" as="geometry" />
        </mxCell>
        <mxCell id="d0x66zHz1gyIVwaYEohO-47" value="" style="edgeStyle=orthogonalEdgeStyle;rounded=0;orthogonalLoop=1;jettySize=auto;html=1;" edge="1" parent="1" source="d0x66zHz1gyIVwaYEohO-2" target="d0x66zHz1gyIVwaYEohO-46">
          <mxGeometry relative="1" as="geometry" />
        </mxCell>
        <mxCell id="d0x66zHz1gyIVwaYEohO-2" value="定时任务生成" style="rounded=0;whiteSpace=wrap;html=1;" vertex="1" parent="1">
          <mxGeometry x="1100" y="250" width="120" height="60" as="geometry" />
        </mxCell>
        <mxCell id="d0x66zHz1gyIVwaYEohO-43" style="edgeStyle=orthogonalEdgeStyle;rounded=0;orthogonalLoop=1;jettySize=auto;html=1;entryX=0.5;entryY=0;entryDx=0;entryDy=0;" edge="1" parent="1" source="d0x66zHz1gyIVwaYEohO-3" target="d0x66zHz1gyIVwaYEohO-34">
          <mxGeometry relative="1" as="geometry" />
        </mxCell>
        <mxCell id="d0x66zHz1gyIVwaYEohO-3" value="点击create按钮" style="rounded=0;whiteSpace=wrap;html=1;" vertex="1" parent="1">
          <mxGeometry x="65" y="400" width="120" height="60" as="geometry" />
        </mxCell>
        <mxCell id="d0x66zHz1gyIVwaYEohO-31" style="edgeStyle=orthogonalEdgeStyle;rounded=0;orthogonalLoop=1;jettySize=auto;html=1;entryX=0.5;entryY=0;entryDx=0;entryDy=0;" edge="1" parent="1" source="d0x66zHz1gyIVwaYEohO-4" target="d0x66zHz1gyIVwaYEohO-15">
          <mxGeometry relative="1" as="geometry" />
        </mxCell>
        <mxCell id="d0x66zHz1gyIVwaYEohO-32" style="edgeStyle=orthogonalEdgeStyle;rounded=0;orthogonalLoop=1;jettySize=auto;html=1;" edge="1" parent="1" source="d0x66zHz1gyIVwaYEohO-4" target="d0x66zHz1gyIVwaYEohO-5">
          <mxGeometry relative="1" as="geometry" />
        </mxCell>
        <mxCell id="d0x66zHz1gyIVwaYEohO-4" value="选择对账月份、对账网点" style="rounded=0;whiteSpace=wrap;html=1;" vertex="1" parent="1">
          <mxGeometry x="70" y="610" width="120" height="60" as="geometry" />
        </mxCell>
        <mxCell id="d0x66zHz1gyIVwaYEohO-8" value="" style="edgeStyle=orthogonalEdgeStyle;rounded=0;orthogonalLoop=1;jettySize=auto;html=1;" edge="1" parent="1" source="d0x66zHz1gyIVwaYEohO-5" target="d0x66zHz1gyIVwaYEohO-7">
          <mxGeometry relative="1" as="geometry" />
        </mxCell>
        <mxCell id="d0x66zHz1gyIVwaYEohO-5" value="获取&lt;br&gt;已审核未付Payment单" style="whiteSpace=wrap;html=1;rounded=0;" vertex="1" parent="1">
          <mxGeometry x="130" y="760" width="120" height="60" as="geometry" />
        </mxCell>
        <mxCell id="d0x66zHz1gyIVwaYEohO-18" value="" style="edgeStyle=orthogonalEdgeStyle;rounded=0;orthogonalLoop=1;jettySize=auto;html=1;" edge="1" parent="1" source="d0x66zHz1gyIVwaYEohO-7" target="d0x66zHz1gyIVwaYEohO-17">
          <mxGeometry relative="1" as="geometry" />
        </mxCell>
        <mxCell id="d0x66zHz1gyIVwaYEohO-7" value="计算分类汇总" style="whiteSpace=wrap;html=1;rounded=0;" vertex="1" parent="1">
          <mxGeometry x="130" y="870" width="120" height="60" as="geometry" />
        </mxCell>
        <mxCell id="d0x66zHz1gyIVwaYEohO-10" value="点击保存" style="whiteSpace=wrap;html=1;rounded=0;" vertex="1" parent="1">
          <mxGeometry x="60" y="1120" width="120" height="60" as="geometry" />
        </mxCell>
        <mxCell id="d0x66zHz1gyIVwaYEohO-12" value="division+月度+网点&lt;br&gt;校验重复" style="whiteSpace=wrap;html=1;rounded=0;" vertex="1" parent="1">
          <mxGeometry x="220" y="1120" width="120" height="60" as="geometry" />
        </mxCell>
        <mxCell id="d0x66zHz1gyIVwaYEohO-22" style="edgeStyle=orthogonalEdgeStyle;rounded=0;orthogonalLoop=1;jettySize=auto;html=1;entryX=0.5;entryY=0;entryDx=0;entryDy=0;" edge="1" parent="1" source="d0x66zHz1gyIVwaYEohO-15" target="d0x66zHz1gyIVwaYEohO-20">
          <mxGeometry relative="1" as="geometry" />
        </mxCell>
        <mxCell id="d0x66zHz1gyIVwaYEohO-15" value="获取Ar invoice&lt;br&gt;发票" style="whiteSpace=wrap;html=1;rounded=0;" vertex="1" parent="1">
          <mxGeometry x="-10" y="760" width="120" height="60" as="geometry" />
        </mxCell>
        <mxCell id="d0x66zHz1gyIVwaYEohO-26" style="edgeStyle=orthogonalEdgeStyle;rounded=0;orthogonalLoop=1;jettySize=auto;html=1;entryX=0.5;entryY=0;entryDx=0;entryDy=0;exitX=0.5;exitY=1;exitDx=0;exitDy=0;" edge="1" parent="1" source="d0x66zHz1gyIVwaYEohO-10" target="d0x66zHz1gyIVwaYEohO-24">
          <mxGeometry relative="1" as="geometry">
            <mxPoint x="190" y="1240" as="sourcePoint" />
          </mxGeometry>
        </mxCell>
        <mxCell id="d0x66zHz1gyIVwaYEohO-30" style="edgeStyle=orthogonalEdgeStyle;rounded=0;orthogonalLoop=1;jettySize=auto;html=1;entryX=0.5;entryY=0;entryDx=0;entryDy=0;" edge="1" parent="1" source="d0x66zHz1gyIVwaYEohO-17" target="d0x66zHz1gyIVwaYEohO-10">
          <mxGeometry relative="1" as="geometry" />
        </mxCell>
        <mxCell id="d0x66zHz1gyIVwaYEohO-17" value="统计工单数量、金额" style="whiteSpace=wrap;html=1;rounded=0;" vertex="1" parent="1">
          <mxGeometry x="130" y="985.5" width="120" height="60" as="geometry" />
        </mxCell>
        <mxCell id="d0x66zHz1gyIVwaYEohO-19" value="" style="edgeStyle=orthogonalEdgeStyle;rounded=0;orthogonalLoop=1;jettySize=auto;html=1;" edge="1" parent="1" source="d0x66zHz1gyIVwaYEohO-20" target="d0x66zHz1gyIVwaYEohO-21">
          <mxGeometry relative="1" as="geometry" />
        </mxCell>
        <mxCell id="d0x66zHz1gyIVwaYEohO-20" value="计算分类汇总" style="whiteSpace=wrap;html=1;rounded=0;" vertex="1" parent="1">
          <mxGeometry x="-10" y="870" width="120" height="60" as="geometry" />
        </mxCell>
        <mxCell id="d0x66zHz1gyIVwaYEohO-28" style="edgeStyle=orthogonalEdgeStyle;rounded=0;orthogonalLoop=1;jettySize=auto;html=1;entryX=0.5;entryY=0;entryDx=0;entryDy=0;" edge="1" parent="1" source="d0x66zHz1gyIVwaYEohO-21" target="d0x66zHz1gyIVwaYEohO-10">
          <mxGeometry relative="1" as="geometry" />
        </mxCell>
        <mxCell id="d0x66zHz1gyIVwaYEohO-21" value="统计发票数量、金额" style="whiteSpace=wrap;html=1;rounded=0;" vertex="1" parent="1">
          <mxGeometry x="-10" y="985.5" width="120" height="60" as="geometry" />
        </mxCell>
        <mxCell id="d0x66zHz1gyIVwaYEohO-24" value="保存数据库" style="ellipse;whiteSpace=wrap;html=1;rounded=0;" vertex="1" parent="1">
          <mxGeometry x="80" y="1324.5" width="80" height="80" as="geometry" />
        </mxCell>
        <mxCell id="d0x66zHz1gyIVwaYEohO-34" value="" style="swimlane;startSize=0;" vertex="1" parent="1">
          <mxGeometry x="-150" y="570" width="550" height="890" as="geometry" />
        </mxCell>
        <mxCell id="d0x66zHz1gyIVwaYEohO-35" value="Draft状态" style="text;html=1;strokeColor=none;fillColor=none;align=center;verticalAlign=middle;whiteSpace=wrap;rounded=0;" vertex="1" parent="d0x66zHz1gyIVwaYEohO-34">
          <mxGeometry x="525" y="270" width="60" height="30" as="geometry" />
        </mxCell>
        <mxCell id="d0x66zHz1gyIVwaYEohO-39" style="edgeStyle=orthogonalEdgeStyle;rounded=0;orthogonalLoop=1;jettySize=auto;html=1;entryX=0;entryY=0.5;entryDx=0;entryDy=0;" edge="1" parent="1" source="d0x66zHz1gyIVwaYEohO-36" target="d0x66zHz1gyIVwaYEohO-37">
          <mxGeometry relative="1" as="geometry" />
        </mxCell>
        <mxCell id="d0x66zHz1gyIVwaYEohO-36" value="编辑remark信息" style="rounded=0;whiteSpace=wrap;html=1;" vertex="1" parent="1">
          <mxGeometry x="560" y="825" width="120" height="60" as="geometry" />
        </mxCell>
        <mxCell id="d0x66zHz1gyIVwaYEohO-37" value="confirm" style="rounded=0;whiteSpace=wrap;html=1;" vertex="1" parent="1">
          <mxGeometry x="770" y="825" width="120" height="60" as="geometry" />
        </mxCell>
        <mxCell id="d0x66zHz1gyIVwaYEohO-38" style="edgeStyle=orthogonalEdgeStyle;rounded=0;orthogonalLoop=1;jettySize=auto;html=1;entryX=0;entryY=0.5;entryDx=0;entryDy=0;" edge="1" parent="1" source="d0x66zHz1gyIVwaYEohO-35" target="d0x66zHz1gyIVwaYEohO-36">
          <mxGeometry relative="1" as="geometry" />
        </mxCell>
        <mxCell id="d0x66zHz1gyIVwaYEohO-40" value="删除" style="rounded=0;whiteSpace=wrap;html=1;" vertex="1" parent="1">
          <mxGeometry x="560" y="1005" width="120" height="60" as="geometry" />
        </mxCell>
        <mxCell id="d0x66zHz1gyIVwaYEohO-44" style="edgeStyle=orthogonalEdgeStyle;rounded=0;orthogonalLoop=1;jettySize=auto;html=1;entryX=1;entryY=0.421;entryDx=0;entryDy=0;entryPerimeter=0;" edge="1" parent="1" source="d0x66zHz1gyIVwaYEohO-41" target="d0x66zHz1gyIVwaYEohO-34">
          <mxGeometry relative="1" as="geometry" />
        </mxCell>
        <mxCell id="d0x66zHz1gyIVwaYEohO-41" value="修改" style="rounded=0;whiteSpace=wrap;html=1;" vertex="1" parent="1">
          <mxGeometry x="560" y="915" width="120" height="60" as="geometry" />
        </mxCell>
        <mxCell id="d0x66zHz1gyIVwaYEohO-45" value="清空重新选择重算" style="text;html=1;strokeColor=none;fillColor=none;align=center;verticalAlign=middle;whiteSpace=wrap;rounded=0;" vertex="1" parent="1">
          <mxGeometry x="460" y="945" width="60" height="30" as="geometry" />
        </mxCell>
        <mxCell id="d0x66zHz1gyIVwaYEohO-49" value="" style="edgeStyle=orthogonalEdgeStyle;rounded=0;orthogonalLoop=1;jettySize=auto;html=1;" edge="1" parent="1" source="d0x66zHz1gyIVwaYEohO-46" target="d0x66zHz1gyIVwaYEohO-48">
          <mxGeometry relative="1" as="geometry" />
        </mxCell>
        <mxCell id="d0x66zHz1gyIVwaYEohO-46" value="配置调度表达式" style="whiteSpace=wrap;html=1;rounded=0;" vertex="1" parent="1">
          <mxGeometry x="1100" y="390" width="120" height="60" as="geometry" />
        </mxCell>
        <mxCell id="d0x66zHz1gyIVwaYEohO-51" value="" style="edgeStyle=orthogonalEdgeStyle;rounded=0;orthogonalLoop=1;jettySize=auto;html=1;" edge="1" parent="1" source="d0x66zHz1gyIVwaYEohO-48" target="d0x66zHz1gyIVwaYEohO-50">
          <mxGeometry relative="1" as="geometry" />
        </mxCell>
        <mxCell id="d0x66zHz1gyIVwaYEohO-48" value="执行时间" style="whiteSpace=wrap;html=1;rounded=0;" vertex="1" parent="1">
          <mxGeometry x="1100" y="530" width="120" height="60" as="geometry" />
        </mxCell>
        <mxCell id="d0x66zHz1gyIVwaYEohO-50" value="对账时间" style="whiteSpace=wrap;html=1;rounded=0;" vertex="1" parent="1">
          <mxGeometry x="1100" y="670" width="120" height="60" as="geometry" />
        </mxCell>
      </root>
    </mxGraphModel>
  </diagram>
</mxfile>
